<svg width="640" height="770" viewBox="0 0 640 770" xmlns="http://www.w3.org/2000/svg" role="img">
<title>ຂອບໃຈທີ່ໃຊ້ບໍລິການ ຂາຍດີ Marketplace</title>
<defs>
  <linearGradient id="bg" x1="0" y1="0" x2="1" y2="1">
    <stop offset="0%" stop-color="#FBF6EC"/>
    <stop offset="55%" stop-color="#F6E9C9"/>
    <stop offset="100%" stop-color="#F1DFAE"/>
  </linearGradient>
  <linearGradient id="bag" x1="0" y1="0" x2="0" y2="1">
    <stop offset="0%" stop-color="#D4A94C"/>
    <stop offset="100%" stop-color="#B8862F"/>
  </linearGradient>
  <linearGradient id="ribbon" x1="0" y1="0" x2="1" y2="0">
    <stop offset="0%" stop-color="#9C2A3A"/>
    <stop offset="100%" stop-color="#7A1E2B"/>
  </linearGradient>
  <clipPath id="cardClip"><rect x="0" y="0" width="640" height="770" rx="36"/></clipPath>
</defs>
<g clip-path="url(#cardClip)">
  <rect x="0" y="0" width="640" height="770" fill="url(#bg)"/>
  <circle cx="70" cy="90" r="120" fill="#7A1E2B" opacity="0.06"/>
  <circle cx="580" cy="680" r="150" fill="#3C7A4B" opacity="0.06"/>
  <circle cx="560" cy="80" r="70" fill="#D4A94C" opacity="0.10"/>
  <g opacity="0.85">
    <circle cx="60" cy="150" r="6" fill="#7A1E2B"/>
    <circle cx="100" cy="230" r="4" fill="#D4A94C"/>
    <circle cx="48" cy="320" r="5" fill="#3C7A4B"/>
    <circle cx="580" cy="150" r="5" fill="#C97A2B"/>
    <circle cx="595" cy="240" r="4" fill="#7A1E2B"/>
    <circle cx="565" cy="330" r="6" fill="#D4A94C"/>
    <circle cx="90" cy="600" r="5" fill="#D4A94C"/>
    <circle cx="555" cy="590" r="5" fill="#3C7A4B"/>
    <rect x="115" y="95" width="9" height="9" fill="#C97A2B" transform="rotate(20 119 99)"/>
    <rect x="520" y="115" width="9" height="9" fill="#7A1E2B" transform="rotate(-15 524 119)"/>
    <rect x="70" y="500" width="8" height="8" fill="#3C7A4B" transform="rotate(35 74 504)"/>
    <rect x="545" y="500" width="8" height="8" fill="#D4A94C" transform="rotate(-25 549 504)"/>
    <path d="M130 60 l4 9 9 4 -9 4 -4 9 -4 -9 -9 -4 9 -4 z" fill="#D4A94C"/>
    <path d="M500 600 l4 9 9 4 -9 4 -4 9 -4 -9 -9 -4 9 -4 z" fill="#7A1E2B"/>
  </g>

  <g transform="translate(320 168)">
    <ellipse cx="0" cy="118" rx="70" ry="12" fill="#7A1E2B" opacity="0.08"/>
    <path d="M-58 -10 L-46 -58 L46 -58 L58 -10 Z" fill="url(#bag)"/>
    <rect x="-58" y="-10" width="116" height="110" rx="10" fill="url(#bag)"/>
    <path d="M-24 -58 Q0 -96 24 -58" fill="none" stroke="#7A1E2B" stroke-width="9" stroke-linecap="round"/>
    <circle cx="0" cy="36" r="34" fill="#FBF6EC"/>
    <path d="M-16 36 L-4 50 L20 20" fill="none" stroke="#3C7A4B" stroke-width="9" stroke-linecap="round" stroke-linejoin="round"/>
  </g>

  <text x="320" y="340" text-anchor="middle" font-family="'Noto Sans Lao','Phetsarath OT','Saysettha OT','Noto Sans',sans-serif" font-size="54" font-weight="700" fill="#7A1E2B">ຂອບໃຈ</text>
  <text x="320" y="415" text-anchor="middle" font-family="'Noto Sans Lao','Phetsarath OT','Saysettha OT','Noto Sans',sans-serif" font-size="28" font-weight="600" fill="#5A1420">ທີ່ໃຊ້ບໍລິການ</text>

  <text x="320" y="493" text-anchor="middle" font-family="'Noto Sans Lao','Phetsarath OT','Saysettha OT','Noto Sans',sans-serif" font-size="32" font-weight="700" fill="#D4A94C">ຂາຍດີ</text>
  <text x="320" y="530" text-anchor="middle" font-family="system-ui,-apple-system,'Segoe UI',sans-serif" font-size="26" font-weight="700" fill="#7A1E2B">Marketplace</text>

  <text x="320" y="568" text-anchor="middle" font-family="system-ui,-apple-system,'Segoe UI',sans-serif" font-size="14" font-weight="700" letter-spacing="1.5" fill="#8A7A5D">THANK YOU FOR SHOPPING WITH US</text>

  <text x="320" y="612" text-anchor="middle" font-family="'Noto Sans Lao','Phetsarath OT','Saysettha OT','Noto Sans',sans-serif" font-size="17" fill="#6B5A3E">
    <tspan x="320" dy="0">ພວກເຮົາຂໍຂອບໃຈທີ່ທ່ານໄວ້ວາງໃຈ</tspan>
    <tspan x="320" dy="32">ເລືອກຊື້ສິນຄ້າກັບພວກເຮົາ</tspan>
  </text>

  <g transform="translate(320 705)">
    <path d="M-130 0 L-95 -20 L95 -20 L130 0 L95 20 L-95 20 Z" fill="url(#ribbon)"/>
    <text x="0" y="7" text-anchor="middle" font-family="system-ui,-apple-system,'Segoe UI',sans-serif" font-size="16" font-weight="700" letter-spacing="1" fill="#F1DFAE">WE APPRECIATE YOU</text>
  </g>
</g>
</svg>
